<?xml version="1.0" encoding="UTF-8" standalone="no"?>
<!-- Created with Inkscape (http://www.inkscape.org/) -->

<svg
   xmlns:dc="http://purl.org/dc/elements/1.1/"
   xmlns:cc="http://creativecommons.org/ns#"
   xmlns:rdf="http://www.w3.org/1999/02/22-rdf-syntax-ns#"
   xmlns:svg="http://www.w3.org/2000/svg"
   xmlns="http://www.w3.org/2000/svg"
   xmlns:sodipodi="http://sodipodi.sourceforge.net/DTD/sodipodi-0.dtd"
   xmlns:inkscape="http://www.inkscape.org/namespaces/inkscape"
   width="1000"
   height="350"
   viewBox="0 0 1000 350"
   version="1.1"
   id="SVGRoot"
   sodipodi:docname="New document 3.2017_08_02_21_10_31.0.svg"
   inkscape:version="0.92.1 unknown">
  <sodipodi:namedview
     id="base"
     pagecolor="#ffffff"
     bordercolor="#666666"
     borderopacity="1.0"
     inkscape:pageopacity="0.0"
     inkscape:pageshadow="2"
     inkscape:zoom="0.49497475"
     inkscape:cx="622.82049"
     inkscape:cy="204.00638"
     inkscape:document-units="px"
     inkscape:current-layer="layer1"
     showgrid="false"
     inkscape:window-width="1366"
     inkscape:window-height="699"
     inkscape:window-x="0"
     inkscape:window-y="24"
     inkscape:window-maximized="1"
     inkscape:snap-page="true"
     inkscape:snap-smooth-nodes="true"
     inkscape:measure-start="509.643,717.857"
     inkscape:measure-end="509.643,717.5"
     inkscape:snap-to-guides="true"
     inkscape:snap-grids="true"
     inkscape:snap-bbox="false"
     inkscape:object-paths="false" />
  <defs
     id="defs4025" />
  <metadata
     id="metadata4028">
    <rdf:RDF>
      <cc:Work
         rdf:about="">
        <dc:format>image/svg+xml</dc:format>
        <dc:type
           rdf:resource="http://purl.org/dc/dcmitype/StillImage" />
        <dc:title></dc:title>
      </cc:Work>
    </rdf:RDF>
  </metadata>
  <g
     id="layer1"
     inkscape:groupmode="layer"
     inkscape:label="Layer 1"
     transform="translate(0,-650)">
    <path
       style="fill:#00acc1;fill-opacity:1;stroke-width:2.04564047"
       d="m 737.8592,700.33721 a 85.670507,85.670507 0 0 0 -85.66733,85.67062 85.670507,85.670507 0 0 0 0.34117,7.12199 c -1.2487,19.86881 -0.38655,36.22528 -10.537,42.40391 -8.79407,6.99245 -27.10755,-1.11334 -48.07921,-5.81306 a 62.275761,62.275761 0 0 0 -23.41959,-4.60912 62.275761,62.275761 0 0 0 -62.274,62.27399 62.275761,62.275761 0 0 0 62.274,62.27726 62.275761,62.275761 0 0 0 37.53236,-12.65293 62.275761,62.275761 0 0 0 1.71242,-1.30893 c 1.27047,-1.01216 2.47029,-2.07224 3.61185,-3.17226 a 62.275761,62.275761 0 0 0 1.18754,-1.17442 62.275761,62.275761 0 0 0 17.1571,-32.70016 c 6.22797,-22.01558 6.89996,-44.03048 17.70492,-48.92557 12.0306,-7.38185 29.75744,5.59966 53.2657,14.3063 a 85.670507,85.670507 0 0 0 35.19007,7.64361 85.670507,85.670507 0 0 0 85.6706,-85.67061 85.670507,85.670507 0 0 0 -85.6706,-85.67062 z"
       id="path4059-3-6"
       inkscape:connector-curvature="0" />
    <circle
       style="fill:#fb8c00;fill-opacity:1;stroke-width:1.45450747"
       id="path4059-3"
       cx="492.40536"
       cy="825"
       r="44.2798" />
    <circle
       style="fill:#03a9f4;fill-opacity:1;stroke-width:1.45450747"
       id="path4059-3-62"
       cx="-498.60971"
       cy="-825"
       r="44.2798"
       transform="scale(-1)" />
    <path
       style="fill:#9c27b0;fill-opacity:0.96089387;stroke-width:2.04564047"
       d="m 420.51542,700.33721 a 62.275761,62.275761 0 0 0 -39.24477,13.96514 c -1.25984,1.0039 -2.4493,2.05571 -3.58232,3.14602 a 62.275761,62.275761 0 0 0 -18.37417,33.89755 c -6.22871,22.01651 -6.89621,44.03027 -17.70165,48.92557 -12.02672,7.37946 -29.74904,-5.58658 -53.24601,-14.29319 a 85.670507,85.670507 0 0 0 -35.21303,-7.65671 85.670507,85.670507 0 0 0 -85.67062,85.6706 85.670507,85.670507 0 0 0 85.67062,85.67061 85.670507,85.670507 0 0 0 85.67062,-85.67061 85.670507,85.670507 0 0 0 -0.34446,-7.13511 c 1.24747,-19.86275 0.39211,-36.21029 10.54029,-42.38752 8.79363,-6.9921 27.10555,1.10996 48.07593,5.80978 a 62.275761,62.275761 0 0 0 23.41957,4.61242 62.275761,62.275761 0 0 0 62.27728,-62.27729 62.275761,62.275761 0 0 0 -62.27728,-62.27726 z"
       id="path4059-3-6-61"
       inkscape:connector-curvature="0" />
    <circle
       style="fill:#e91e63;fill-opacity:0.98823529;stroke-width:1.45450747"
       id="path4059-3-62-2"
       cx="-878.03821"
       cy="203.93253"
       transform="rotate(-100.68551)"
       r="44.2798" />
    <path
       style="fill:#f44336;fill-opacity:1;stroke-width:2.04564047"
       d="m 89.806836,678.20226 a 85.670507,85.670507 0 0 0 -17.04226,1.47951 85.670507,85.670507 0 0 0 -68.3002903,100.06878 85.670507,85.670507 0 0 0 100.0720543,68.30031 85.670507,85.670507 0 0 0 6.92845,-1.65666 c 19.75831,-2.45696 35.66998,-6.33643 43.62428,2.49318 8.50556,7.34831 3.93167,26.8608 3.20505,48.35149 a 62.275761,62.275761 0 0 0 -0.18697,23.83949 62.275761,62.275761 0 0 0 72.7421,49.64731 62.275761,62.275761 0 0 0 49.64729,-72.74212 62.275761,62.275761 0 0 0 -19.39111,-34.53725 62.275761,62.275761 0 0 0 -1.59761,-1.43358 c -1.22764,-1.05885 -2.48932,-2.03931 -3.77915,-2.95575 a 62.275761,62.275761 0 0 0 -36.70239,-11.75736 c -22.78894,-2.03807 -44.54598,1.38746 -51.35973,-8.32266 -9.48327,-10.45188 -0.0183,-30.27749 4.17938,-54.98797 a 85.670507,85.670507 0 0 0 0.99072,-36.00692 85.670507,85.670507 0 0 0 -83.029814,-69.7798 z"
       id="path4059-3-6-61-0"
       inkscape:connector-curvature="0" />
    <circle
       style="fill:#009688;fill-opacity:0.96470588;stroke-width:1.45450747"
       id="path4059-3-62-2-5"
       cx="928.53339"
       cy="-471.54172"
       transform="rotate(79.31449)"
       r="44.2798" />
    <path
       style="fill:#ffc107;fill-opacity:1;stroke-width:2.04564047"
       d="m 780.26968,678.20192 a 62.275761,62.275761 0 0 0 -12.38722,1.07272 62.275761,62.275761 0 0 0 -49.64729,72.74213 62.275761,62.275761 0 0 0 19.35504,34.50115 c 0.0175,0.0168 0.0351,0.0329 0.0524,0.0492 a 62.275761,62.275761 0 0 0 1.55824,1.40077 c 1.2391,1.07002 2.516,2.06045 3.81852,2.98528 a 62.275761,62.275761 0 0 0 1.35813,0.9415 c 0.0134,0.0101 0.0287,0.017 0.0427,0.0262 a 62.275761,62.275761 0 0 0 35.28522,10.77977 c 22.78892,2.03807 44.54588,-1.38416 51.35968,8.32594 9.4875,10.45655 0.01,30.29163 -4.1859,55.0175 a 85.670507,85.670507 0 0 0 -0.9809,35.97411 85.670507,85.670507 0 0 0 100.0688,68.30029 85.670507,85.670507 0 0 0 68.3003,-100.06879 85.670507,85.670507 0 0 0 -100.0721,-68.30029 85.670507,85.670507 0 0 0 -6.9449,1.66323 c -19.7504,2.45705 -35.6558,6.3273 -43.6078,-2.49977 -8.503,-7.34605 -3.9338,-26.84562 -3.2051,-48.32852 a 62.275761,62.275761 0 0 0 0.187,-23.85918 62.275761,62.275761 0 0 0 -60.35485,-50.7233 z"
       id="path4059-3-6-61-0-9"
       inkscape:connector-curvature="0" />
    <circle
       style="fill:#26a69a;fill-opacity:1;stroke-width:1.45450759"
       id="path4059-3-62-2-5-9"
       cx="108.43021"
       cy="-1027.0343"
       transform="rotate(136.99312)"
       r="29.954809" />
    <path
       style="fill:#4caf50;fill-opacity:1;stroke-width:2.04564047"
       d="m 645.45042,711.32066 a 42.128882,42.128882 0 0 0 -30.81388,11.27185 42.128882,42.128882 0 0 0 -13.03676,25.65033 c -0.0855,0.66054 -0.1468,1.31701 -0.19354,1.97159 a 42.128882,42.128882 0 0 0 -0.11153,1.74852 c -2.5e-4,0.0118 2.5e-4,0.024 0,0.0361 a 42.128882,42.128882 0 0 0 6.76443,24.30532 c 7.06668,13.64498 16.72038,24.77241 13.65349,32.13264 -2.54512,9.2022 -17.30076,10.96281 -32.94619,17.50155 a 57.955176,57.955176 0 0 0 -20.93953,12.4561 57.955176,57.955176 0 0 0 -2.85076,81.91115 57.955176,57.955176 0 0 0 81.91114,2.85078 57.955176,57.955176 0 0 0 2.85077,-81.91115 57.955176,57.955176 0 0 0 -3.46095,-3.36909 c -8.5482,-10.40198 -16.51894,-18.09544 -14.34895,-25.83405 1.12355,-7.51465 13.91454,-11.95796 26.45406,-19.30582 a 42.128882,42.128882 0 0 0 13.72567,-8.52935 42.128882,42.128882 0 0 0 2.07327,-59.5446 42.128882,42.128882 0 0 0 -28.73072,-13.34185 z"
       id="path4059-3-6-61-0-9-7"
       inkscape:connector-curvature="0" />
    <circle
       style="fill:#ef5350;fill-opacity:0.99029122;stroke-width:1.45450759"
       id="path4059-3-62-2-5-9-2"
       cx="-289.47906"
       cy="858.1629"
       transform="rotate(-43.00688)"
       r="29.954809" />
    <path
       style="fill:#673ab7;fill-opacity:0.99215686;stroke-width:2.04564047"
       d="m 390.39048,711.34073 a 57.955176,57.955176 0 0 0 -42.3908,15.50371 57.955176,57.955176 0 0 0 -2.85077,81.91115 57.955176,57.955176 0 0 0 3.45438,3.35925 c 8.55111,10.40671 16.52616,18.10296 14.35553,25.84389 -1.12405,7.51792 -13.92572,11.95879 -26.47047,19.31238 a 42.128882,42.128882 0 0 0 -13.70927,8.52278 42.128882,42.128882 0 0 0 -2.07327,59.54133 42.128882,42.128882 0 0 0 59.5446,2.07327 42.128882,42.128882 0 0 0 13.03676,-25.65033 c 0.0853,-0.65901 0.1468,-1.31522 0.19355,-1.96831 a 42.128882,42.128882 0 0 0 0.11152,-1.75507 42.128882,42.128882 0 0 0 0,-0.007 c 2e-4,-0.0101 -2e-4,-0.0197 0,-0.0296 a 42.128882,42.128882 0 0 0 -6.76443,-24.30205 c -7.06668,-13.64495 -16.72038,-24.77239 -13.65348,-32.13262 2.54582,-9.20472 17.3091,-10.96496 32.9593,-17.5081 a 57.955176,57.955176 0 0 0 20.92641,-12.44955 57.955176,57.955176 0 0 0 2.85076,-81.91115 57.955176,57.955176 0 0 0 -39.52034,-18.35448 z"
       id="path4059-3-6-61-0-9-7-9"
       inkscape:connector-curvature="0" />
    <circle
       style="fill:#5c6bc0;fill-opacity:0.97254902;stroke-width:1.45450759"
       id="path4059-3-62-2-5-9-2-4"
       cx="1019.0501"
       cy="153.87053"
       transform="rotate(44.591745)"
       r="29.954809" />
    <path
       style="fill:#cddc39;fill-opacity:0.98882681;stroke-width:2.04564047"
       d="m 718.15315,759.63647 a 42.128882,42.128882 0 0 0 -30.31523,12.54797 42.128882,42.128882 0 0 0 0.4232,59.58068 42.128882,42.128882 0 0 0 24.09209,11.72785 42.128882,42.128882 0 0 0 2.07985,0.21978 c 0.65152,0.0568 1.29783,0.0919 1.94206,0.11153 a 42.128882,42.128882 0 0 0 25.81436,-7.73218 c 13.34227,-7.63295 24.06099,-17.75182 31.54542,-14.99522 9.2988,2.15687 11.67795,16.82105 18.86296,32.17528 a 57.955176,57.955176 0 0 0 13.32544,20.40807 57.955176,57.955176 0 0 0 81.9604,-0.58392 57.955176,57.955176 0 0 0 -0.584,-81.95709 57.955176,57.955176 0 0 0 -81.96032,0.58394 57.955176,57.955176 0 0 0 -3.21492,3.59216 c -10.03843,8.97908 -17.38935,17.26926 -25.21403,15.42499 -7.55778,-0.808 -12.53319,-13.41257 -20.40478,-25.63723 a 42.128882,42.128882 0 0 0 -9.0903,-13.34185 42.128882,42.128882 0 0 0 -29.2622,-12.12478 z"
       id="path4059-3-6-61-0-9-7-9-7"
       inkscape:connector-curvature="0" />
    <circle
       style="fill:#1565c0;fill-opacity:0.99607843;stroke-width:1.45450759"
       id="path4059-3-62-2-5-9-2-4-0"
       cx="-847.90668"
       cy="-322.59222"
       transform="rotate(-135.40825)"
       r="29.954809" />
    <path
       style="fill:#e91e63;fill-opacity:0.98882681;stroke-width:2.04564047"
       d="m 148.82985,759.634 a 57.955176,57.955176 0 0 0 -41.70517,17.26862 57.955176,57.955176 0 0 0 0.58393,81.95707 57.955176,57.955176 0 0 0 81.96035,-0.58392 57.955176,57.955176 0 0 0 3.22147,-3.602 c 10.03393,-8.97606 17.38836,-17.25561 25.21075,-15.41187 7.55778,0.808 12.53318,13.40927 20.40478,25.63394 a 42.128882,42.128882 0 0 0 9.08703,13.34185 42.128882,42.128882 0 0 0 59.5807,-0.42318 42.128882,42.128882 0 0 0 -0.42647,-59.5807 42.128882,42.128882 0 0 0 -24.08882,-11.72783 42.128882,42.128882 0 0 0 -2.07984,-0.2198 c -0.65224,-0.0568 -1.30044,-0.0919 -1.94534,-0.11153 a 42.128882,42.128882 0 0 0 -25.81109,7.73217 c -13.3438,7.63316 -24.06366,17.75207 -31.54869,14.99523 -9.30471,-2.15824 -11.6771,-16.83993 -18.8728,-32.2048 A 57.955176,57.955176 0 0 0 189.08502,776.3187 57.955176,57.955176 0 0 0 148.82985,759.634 Z"
       id="path4059-3-6-61-0-9-7-9-7-3"
       inkscape:connector-curvature="0" />
    <circle
       style="fill:#5d7986;fill-opacity:1;stroke:none;stroke-width:0.17328782;stroke-miterlimit:4;stroke-dasharray:none;stroke-dashoffset:0;stroke-opacity:1"
       id="path5414"
       cx="500"
       cy="825"
       r="57.762604" />
  </g>
</svg>
