<?xml version="1.0" encoding="UTF-8" standalone="no"?>
<!-- Created with Inkscape (http://www.inkscape.org/) -->

<svg
   xmlns:dc="http://purl.org/dc/elements/1.1/"
   xmlns:cc="http://creativecommons.org/ns#"
   xmlns:rdf="http://www.w3.org/1999/02/22-rdf-syntax-ns#"
   xmlns:svg="http://www.w3.org/2000/svg"
   xmlns="http://www.w3.org/2000/svg"
   xmlns:sodipodi="http://sodipodi.sourceforge.net/DTD/sodipodi-0.dtd"
   xmlns:inkscape="http://www.inkscape.org/namespaces/inkscape"
   width="130"
   height="50"
   viewBox="0 0 130 50"
   version="1.1"
   id="SVGRoot"
   sodipodi:docname="logo_withName_white.svg"
   inkscape:version="0.92.1 unknown">
  <sodipodi:namedview
     id="base"
     pagecolor="#ffffff"
     bordercolor="#666666"
     borderopacity="1.0"
     inkscape:pageopacity="0.0"
     inkscape:pageshadow="2"
     inkscape:zoom="3.959798"
     inkscape:cx="88.3605"
     inkscape:cy="50.092549"
     inkscape:document-units="px"
     inkscape:current-layer="layer1"
     showgrid="false"
     inkscape:window-width="1366"
     inkscape:window-height="699"
     inkscape:window-x="0"
     inkscape:window-y="24"
     inkscape:window-maximized="1"
     inkscape:snap-page="true"
     inkscape:snap-smooth-nodes="true"
     inkscape:measure-start="509.643,717.857"
     inkscape:measure-end="509.643,717.5"
     inkscape:snap-to-guides="true"
     inkscape:snap-grids="true"
     inkscape:snap-bbox="false"
     inkscape:object-paths="false" />
  <defs
     id="defs4025" />
  <metadata
     id="metadata4028">
    <rdf:RDF>
      <cc:Work
         rdf:about="">
        <dc:format>image/svg+xml</dc:format>
        <dc:type
           rdf:resource="http://purl.org/dc/dcmitype/StillImage" />
        <dc:title></dc:title>
      </cc:Work>
    </rdf:RDF>
  </metadata>
  <g
     id="layer1"
     inkscape:groupmode="layer"
     inkscape:label="Layer 1"
     transform="translate(0,-950)">
    <g
       id="g4565"
       transform="matrix(0.94747378,0,0,0.94747378,2.4864003,50.435065)"
       style="opacity:0.99;fill:#fefefe;fill-opacity:1">
      <path
         inkscape:connector-curvature="0"
         id="path4059-3-6"
         d="m 31.912886,955.83077 a 3.7278594,3.7278594 0 0 0 -3.727717,3.72786 3.7278594,3.7278594 0 0 0 0.01487,0.30993 c -0.05432,0.86456 -0.01682,1.57627 -0.458512,1.84511 -0.382658,0.30432 -1.179553,-0.0482 -2.09211,-0.25293 a 2.7098622,2.7098622 0 0 0 -1.019076,-0.20057 2.7098622,2.7098622 0 0 0 -2.709788,2.70981 2.7098622,2.7098622 0 0 0 2.709788,2.70994 2.7098622,2.7098622 0 0 0 1.633175,-0.5506 2.7098622,2.7098622 0 0 0 0.07452,-0.0567 c 0.05529,-0.0443 0.107492,-0.0902 0.157165,-0.13804 a 2.7098622,2.7098622 0 0 0 0.05171,-0.0509 2.7098622,2.7098622 0 0 0 0.74657,-1.42291 c 0.271007,-0.958 0.300245,-1.91593 0.770415,-2.12896 0.523495,-0.3212 1.294863,0.24367 2.317799,0.62252 a 3.7278594,3.7278594 0 0 0 1.531259,0.33261 3.7278594,3.7278594 0 0 0 3.72786,-3.72786 3.7278594,3.7278594 0 0 0 -3.72786,-3.72786 z"
         style="fill:#fefefe;fill-opacity:1;stroke-width:0.08901384" />
      <circle
         r="1.9267876"
         cy="969.70087"
         cx="21.232225"
         id="path4059-3"
         style="fill:#fefefe;fill-opacity:1;stroke-width:0.06329132" />
      <circle
         transform="scale(-1)"
         r="1.9267876"
         cy="-981.94141"
         cx="-21.502207"
         id="path4059-3-62"
         style="fill:#fefefe;fill-opacity:1;stroke-width:0.06329132" />
      <path
         inkscape:connector-curvature="0"
         id="path4059-3-6-61"
         d="m 18.104017,984.96235 a 2.7098622,2.7098622 0 0 0 -1.707692,0.60771 c -0.05484,0.0437 -0.106585,0.0894 -0.155886,0.13687 a 2.7098622,2.7098622 0 0 0 -0.79953,1.47501 c -0.271033,0.95806 -0.300082,1.91595 -0.770265,2.12895 -0.523333,0.3211 -1.294498,-0.2431 -2.316945,-0.6219 a 3.7278594,3.7278594 0 0 0 -1.532256,-0.3332 3.7278594,3.7278594 0 0 0 -3.7278671,3.7278 3.7278594,3.7278594 0 0 0 3.7278671,3.7279 3.7278594,3.7278594 0 0 0 3.727866,-3.7279 3.7278594,3.7278594 0 0 0 -0.015,-0.3105 c 0.05425,-0.8643 0.01708,-1.5756 0.458649,-1.8444 0.382645,-0.3042 1.179469,0.048 2.091973,0.2528 a 2.7098622,2.7098622 0 0 0 1.019076,0.2007 2.7098622,2.7098622 0 0 0 2.709925,-2.7099 2.7098622,2.7098622 0 0 0 -2.709925,-2.70994 z"
         style="fill:#fefefe;fill-opacity:1;stroke-width:0.08901384" />
      <circle
         r="1.9267876"
         transform="rotate(-100.68551)"
         cy="-165.58566"
         cx="-961.74194"
         id="path4059-3-62-2"
         style="fill:#fefefe;fill-opacity:1;stroke-width:0.06329132" />
      <path
         inkscape:connector-curvature="0"
         id="path4059-3-6-61-0"
         d="m 3.7135933,963.42512 a 3.7278594,3.7278594 0 0 0 -0.741575,0.0646 A 3.7278594,3.7278594 0 0 0 0,967.84413 a 3.7278594,3.7278594 0 0 0 4.3545301,2.972 3.7278594,3.7278594 0 0 0 0.3014839,-0.0721 c 0.8597598,-0.10688 1.5521373,-0.27569 1.8982608,0.1085 0.3701126,0.31972 0.171086,1.16876 0.1394679,2.10393 a 2.7098622,2.7098622 0 0 0 -0.00815,1.03735 2.7098622,2.7098622 0 0 0 3.1652873,2.16033 2.7098622,2.7098622 0 0 0 2.160354,-3.16527 2.7098622,2.7098622 0 0 0 -0.843784,-1.50286 2.7098622,2.7098622 0 0 0 -0.06952,-0.0626 c -0.0534,-0.0463 -0.108326,-0.0888 -0.164448,-0.12865 a 2.7098622,2.7098622 0 0 0 -1.5970644,-0.51154 c -0.9916378,-0.0887 -1.9383687,0.06 -2.2348643,-0.36215 -0.4126526,-0.45487 -6.521e-4,-1.31754 0.1818645,-2.39278 a 3.7278594,3.7278594 0 0 0 0.043101,-1.56682 3.7278594,3.7278594 0 0 0 -3.6129552,-3.03636 z"
         style="fill:#fefefe;fill-opacity:1;stroke-width:0.08901384" />
      <circle
         r="1.9267876"
         transform="rotate(79.31449)"
         cy="153.90814"
         cx="963.76544"
         id="path4059-3-62-2-5"
         style="fill:#fefefe;fill-opacity:1;stroke-width:0.06329132" />
      <path
         inkscape:connector-curvature="0"
         id="path4059-3-6-61-0-9"
         d="m 33.758337,975.15786 a 2.7098622,2.7098622 0 0 0 -0.539021,0.0469 2.7098622,2.7098622 0 0 0 -2.160348,3.16527 2.7098622,2.7098622 0 0 0 0.842213,1.50129 c 6.53e-4,0 0.0013,0 0.0026,0 a 2.7098622,2.7098622 0 0 0 0.06781,0.0613 c 0.05392,0.0463 0.10948,0.0897 0.166156,0.12989 a 2.7098622,2.7098622 0 0 0 0.05908,0.0411 c 4.83e-4,0 0.0013,0 0.002,0 a 2.7098622,2.7098622 0 0 0 1.535399,0.46909 c 0.991631,0.0887 1.938368,-0.06 2.234864,0.36228 0.412835,0.455 4.76e-4,1.31813 -0.182151,2.39402 a 3.7278594,3.7278594 0 0 0 -0.04271,1.56538 3.7278594,3.7278594 0 0 0 4.354387,2.972 3.7278594,3.7278594 0 0 0 2.972018,-4.35435 3.7278594,3.7278594 0 0 0 -4.35453,-2.972 3.7278594,3.7278594 0 0 0 -0.302201,0.0723 c -0.859415,0.10694 -1.551525,0.27537 -1.897544,-0.10876 -0.370002,-0.31964 -0.171177,-1.16816 -0.139468,-2.10294 a 2.7098622,2.7098622 0 0 0 0.0082,-1.0382 2.7098622,2.7098622 0 0 0 -2.62628,-2.20721 z"
         style="fill:#fefefe;fill-opacity:1;stroke-width:0.08901384" />
      <circle
         r="1.3034511"
         transform="rotate(136.99312)"
         cy="-735.67255"
         cx="649.49036"
         id="path4059-3-62-2-5-9"
         style="fill:#fefefe;fill-opacity:1;stroke-width:0.06329133" />
      <path
         inkscape:connector-curvature="0"
         id="path4059-3-6-61-0-9-7"
         d="m 27.891816,983.55704 a 1.8331927,1.8331927 0 0 0 -1.340826,0.49048 1.8331927,1.8331927 0 0 0 -0.56728,1.11612 c -0.0039,0.0287 -0.0065,0.0574 -0.0084,0.0858 a 1.8331927,1.8331927 0 0 0 -0.0046,0.076 c -7e-6,0 1.3e-5,0 0,0 a 1.8331927,1.8331927 0 0 0 0.29435,1.05763 c 0.307496,0.59369 0.727569,1.07791 0.594113,1.3982 -0.110745,0.40043 -0.752823,0.47712 -1.433613,0.76162 a 2.5218568,2.5218568 0 0 0 -0.911162,0.542 2.5218568,2.5218568 0 0 0 -0.124046,3.5643 2.5218568,2.5218568 0 0 0 3.564272,0.124 2.5218568,2.5218568 0 0 0 0.124047,-3.5643 2.5218568,2.5218568 0 0 0 -0.150598,-0.1466 c -0.371965,-0.4526 -0.718806,-0.7874 -0.624382,-1.12414 0.04891,-0.327 0.605479,-0.52034 1.151124,-0.8401 a 1.8331927,1.8331927 0 0 0 0.597256,-0.37109 1.8331927,1.8331927 0 0 0 0.09022,-2.59107 1.8331927,1.8331927 0 0 0 -1.25019,-0.58052 z"
         style="fill:#fefefe;fill-opacity:1;stroke-width:0.08901384" />
      <circle
         r="1.3034511"
         transform="rotate(-43.00688)"
         cy="720.61383"
         cx="-650.17664"
         id="path4059-3-62-2-5-9-2"
         style="fill:#fefefe;fill-opacity:1;stroke-width:0.06329133" />
      <path
         inkscape:connector-curvature="0"
         id="path4059-3-6-61-0-9-7-9"
         d="m 16.793159,957.97669 a 2.5218568,2.5218568 0 0 0 -1.844584,0.67461 2.5218568,2.5218568 0 0 0 -0.124053,3.56433 2.5218568,2.5218568 0 0 0 0.150318,0.14612 c 0.372088,0.45285 0.719118,0.78775 0.624662,1.1246 -0.0489,0.32714 -0.605961,0.5204 -1.151835,0.84037 a 1.8331927,1.8331927 0 0 0 -0.596545,0.37082 1.8331927,1.8331927 0 0 0 -0.09021,2.59094 1.8331927,1.8331927 0 0 0 2.591016,0.0902 1.8331927,1.8331927 0 0 0 0.567282,-1.11612 c 0.0039,-0.0287 0.0065,-0.0574 0.0084,-0.0857 a 1.8331927,1.8331927 0 0 0 0.0046,-0.0764 c 6e-6,0 -7e-6,0 0,0 a 1.8331927,1.8331927 0 0 0 -0.294351,-1.05744 c -0.307496,-0.59376 -0.727569,-1.07797 -0.594113,-1.39826 0.110778,-0.40049 0.753189,-0.47711 1.434188,-0.7618 a 2.5218568,2.5218568 0 0 0 0.910587,-0.54172 2.5218568,2.5218568 0 0 0 0.124054,-3.56433 2.5218568,2.5218568 0 0 0 -1.71969,-0.79863 z"
         style="fill:#fefefe;fill-opacity:1;stroke-width:0.08901384" />
      <circle
         r="1.3034511"
         transform="rotate(44.591745)"
         cy="672.33954"
         cx="700.2951"
         id="path4059-3-62-2-5-9-2-4"
         style="fill:#fefefe;fill-opacity:1;stroke-width:0.06329133" />
      <path
         inkscape:connector-curvature="0"
         id="path4059-3-6-61-0-9-7-9-7"
         d="m 31.055402,967.45377 a 1.8331927,1.8331927 0 0 0 -1.319139,0.54597 1.8331927,1.8331927 0 0 0 0.01839,2.59257 1.8331927,1.8331927 0 0 0 1.048347,0.51036 1.8331927,1.8331927 0 0 0 0.0905,0.01 c 0.02836,0 0.05647,0.007 0.08451,0.007 a 1.8331927,1.8331927 0 0 0 1.123287,-0.33646 c 0.580577,-0.33215 1.046985,-0.77242 1.372666,-0.65251 0.404626,0.0939 0.508153,0.732 0.8208,1.40009 a 2.5218568,2.5218568 0 0 0 0.579839,0.88804 2.5218568,2.5218568 0 0 0 3.566418,-0.0254 2.5218568,2.5218568 0 0 0 -0.02543,-3.56629 2.5218568,2.5218568 0 0 0 -3.566411,0.0254 2.5218568,2.5218568 0 0 0 -0.139899,0.1563 c -0.436811,0.39071 -0.756676,0.75149 -1.097159,0.67123 -0.328871,-0.0352 -0.545366,-0.58366 -0.88789,-1.1156 a 1.8331927,1.8331927 0 0 0 -0.395556,-0.58053 1.8331927,1.8331927 0 0 0 -1.273312,-0.52757 z"
         style="fill:#fefefe;fill-opacity:1;stroke-width:0.08901384" />
      <circle
         r="1.3034511"
         transform="rotate(-135.40825)"
         cy="-687.28125"
         cx="-700.34045"
         id="path4059-3-62-2-5-9-2-4-0"
         style="fill:#fefefe;fill-opacity:1;stroke-width:0.06329133" />
      <path
         inkscape:connector-curvature="0"
         id="path4059-3-6-61-0-9-7-9-7-3"
         d="m 6.2819117,978.39753 a 2.5218568,2.5218568 0 0 0 -1.8147522,0.75143 2.5218568,2.5218568 0 0 0 0.02543,3.56628 2.5218568,2.5218568 0 0 0 3.5664116,-0.0254 2.5218568,2.5218568 0 0 0 0.1401786,-0.15676 c 0.4366156,-0.39058 0.7566374,-0.75084 1.0970229,-0.67063 0.3288636,0.0352 0.5453652,0.58352 0.8878894,1.11547 a 1.8331927,1.8331927 0 0 0 0.395412,0.58058 1.8331927,1.8331927 0 0 0 2.592588,-0.0183 1.8331927,1.8331927 0 0 0 -0.01858,-2.59264 1.8331927,1.8331927 0 0 0 -1.048197,-0.51029 1.8331927,1.8331927 0 0 0 -0.0905,-0.01 c -0.02836,0 -0.0566,-0.007 -0.08466,-0.007 a 1.8331927,1.8331927 0 0 0 -1.123137,0.33646 c -0.580642,0.33216 -1.0471019,0.77243 -1.3728096,0.65252 -0.4048802,-0.0939 -0.5081134,-0.73278 -0.8212299,-1.4014 a 2.5218568,2.5218568 0 0 0 -0.5794156,-0.88673 2.5218568,2.5218568 0 0 0 -1.7516594,-0.726 z"
         style="fill:#fefefe;fill-opacity:1;stroke-width:0.08901384" />
      <circle
         r="3.1040232"
         cy="975.8139"
         cx="21.475653"
         id="path5414"
         style="fill:#fefefe;fill-opacity:1;stroke:none;stroke-width:0.00931207;stroke-miterlimit:4;stroke-dasharray:none;stroke-dashoffset:0;stroke-opacity:1" />
    </g>
    <text
       xml:space="preserve"
       style="font-style:normal;font-weight:normal;font-size:8.53060246px;line-height:1.25;font-family:sans-serif;letter-spacing:0px;word-spacing:0px;fill:#000000;fill-opacity:1;stroke:none;stroke-width:0.21326502"
       x="93.58683"
       y="982.698"
       id="text4779"><tspan
         sodipodi:role="line"
         id="tspan4777"
         x="93.58683"
         y="982.698"
         style="font-style:normal;font-variant:normal;font-weight:500;font-stretch:normal;font-size:20.47344589px;font-family:Dosis;-inkscape-font-specification:'Dosis, Medium';font-variant-ligatures:normal;font-variant-caps:normal;font-variant-numeric:normal;font-feature-settings:normal;text-align:center;writing-mode:lr-tb;text-anchor:middle;fill:#ffffff;fill-opacity:1;stroke-width:0.21326502">tecmides</tspan></text>
  </g>
</svg>
