<?xml version="1.0" encoding="UTF-8" standalone="no"?>
<!-- Created with Inkscape (http://www.inkscape.org/) -->

<svg
   xmlns:dc="http://purl.org/dc/elements/1.1/"
   xmlns:cc="http://creativecommons.org/ns#"
   xmlns:rdf="http://www.w3.org/1999/02/22-rdf-syntax-ns#"
   xmlns:svg="http://www.w3.org/2000/svg"
   xmlns="http://www.w3.org/2000/svg"
   xmlns:sodipodi="http://sodipodi.sourceforge.net/DTD/sodipodi-0.dtd"
   xmlns:inkscape="http://www.inkscape.org/namespaces/inkscape"
   width="1000px"
   height="1000px"
   viewBox="0 0 1000 1000"
   version="1.1"
   id="SVGRoot"
   sodipodi:docname="tecmides-full-logo.svg"
   inkscape:version="0.92.2 (5c3e80d, 2017-08-06)"
   inkscape:export-filename="C:\Users\Diego Carmona\Desktop\website_tecmides\assets\img\tecmides-full-logo.png"
   inkscape:export-xdpi="96"
   inkscape:export-ydpi="96">
  <sodipodi:namedview
     id="base"
     pagecolor="#ffffff"
     bordercolor="#666666"
     borderopacity="1.0"
     inkscape:pageopacity="0.0"
     inkscape:pageshadow="2"
     inkscape:zoom="0.35"
     inkscape:cx="804.4658"
     inkscape:cy="495.77983"
     inkscape:document-units="px"
     inkscape:current-layer="layer1"
     showgrid="false"
     inkscape:window-width="1366"
     inkscape:window-height="715"
     inkscape:window-x="-8"
     inkscape:window-y="-8"
     inkscape:window-maximized="1"
     inkscape:snap-page="true"
     inkscape:snap-smooth-nodes="true"
     inkscape:measure-start="509.643,717.857"
     inkscape:measure-end="509.643,717.5"
     inkscape:snap-to-guides="true"
     inkscape:snap-grids="true"
     inkscape:snap-bbox="false"
     inkscape:object-paths="false"
     inkscape:snap-text-baseline="true" />
  <defs
     id="defs4025" />
  <metadata
     id="metadata4028">
    <rdf:RDF>
      <cc:Work
         rdf:about="">
        <dc:format>image/svg+xml</dc:format>
        <dc:type
           rdf:resource="http://purl.org/dc/dcmitype/StillImage" />
        <dc:title></dc:title>
      </cc:Work>
    </rdf:RDF>
  </metadata>
  <g
     id="layer1"
     inkscape:groupmode="layer"
     inkscape:label="Layer 1">
    <g
       id="g880"
       transform="translate(1.4969743)">
      <path
         inkscape:export-ydpi="96"
         inkscape:export-xdpi="96"
         inkscape:connector-curvature="0"
         id="path4059-3-6"
         d="m 679.06032,43.683456 a 64.858981,64.858983 0 0 0 -64.85657,64.859074 64.858981,64.858983 0 0 0 0.25829,5.39187 c -0.94536,15.04218 -0.29265,27.42525 -7.9773,32.10294 -6.65776,5.29381 -20.52244,-0.84289 -36.39955,-4.40092 a 47.147408,47.147409 0 0 0 -17.73038,-3.48945 47.147408,47.147409 0 0 0 -47.14608,47.14606 47.147408,47.147409 0 0 0 47.14608,47.14856 47.147408,47.147409 0 0 0 28.41479,-9.57923 47.147408,47.147409 0 0 0 1.29644,-0.99096 c 0.96184,-0.76628 1.87019,-1.56884 2.73444,-2.40163 a 47.147408,47.147409 0 0 0 0.89905,-0.88913 47.147408,47.147409 0 0 0 12.98921,-24.75647 c 4.71504,-16.66743 5.22379,-33.33436 13.40395,-37.04031 9.10807,-5.58861 22.52861,4.23936 40.32612,10.83094 a 64.858981,64.858983 0 0 0 26.64151,5.78679 64.858981,64.858983 0 0 0 64.85907,-64.85906 64.858981,64.858983 0 0 0 -64.85907,-64.859074 z"
         style="opacity:1;fill:#fb8c00;fill-opacity:1;stroke:none;stroke-width:1.54870296" />
      <circle
         inkscape:export-ydpi="96"
         inkscape:export-xdpi="96"
         r="33.523121"
         cy="285.00177"
         cx="493.23386"
         id="path4059-3"
         style="opacity:1;fill:#fb8c00;fill-opacity:1;stroke:none;stroke-width:1.1011709" />
      <circle
         inkscape:export-ydpi="96"
         inkscape:export-xdpi="96"
         r="33.523121"
         transform="scale(-1)"
         cy="-497.96814"
         cx="-497.93106"
         id="path4059-3-62"
         style="opacity:1;fill:#03a9f4;fill-opacity:1;stroke:none;stroke-width:1.1011709" />
      <path
         inkscape:export-ydpi="96"
         inkscape:export-xdpi="96"
         inkscape:connector-curvature="0"
         id="path4059-3-6-61"
         d="m 438.80735,550.52792 a 47.147408,47.147409 0 0 0 -29.71123,10.57266 c -0.95379,0.76002 -1.8543,1.55632 -2.71208,2.38177 a 47.147408,47.147409 0 0 0 -13.91062,25.66298 c -4.7156,16.66815 -5.22095,33.33422 -13.40147,37.04032 -9.10513,5.58681 -22.52226,-4.22945 -40.31122,-10.82101 a 64.858981,64.858983 0 0 0 -26.65889,-5.7967 64.858981,64.858983 0 0 0 -64.85907,64.85905 64.858981,64.858983 0 0 0 64.85907,64.85906 64.858981,64.858983 0 0 0 64.85906,-64.85906 64.858981,64.858983 0 0 0 -0.26078,-5.40181 c 0.94443,-15.03759 0.29686,-27.4139 7.97979,-32.09052 6.65744,-5.29355 20.52093,0.84032 36.39708,4.39844 a 47.147408,47.147409 0 0 0 17.73036,3.49194 47.147408,47.147409 0 0 0 47.14856,-47.14857 47.147408,47.147409 0 0 0 -47.14856,-47.14855 z"
         style="opacity:1;fill:#03a9f4;fill-opacity:1;stroke:none;stroke-width:1.54870296" />
      <circle
         inkscape:export-ydpi="96"
         inkscape:export-xdpi="96"
         r="33.523121"
         transform="rotate(-100.68551)"
         cy="316.14337"
         cx="-457.09982"
         id="path4059-3-62-2"
         style="opacity:1;fill:#ec407a;fill-opacity:1;stroke:none;stroke-width:1.1011709" />
      <path
         inkscape:export-ydpi="96"
         inkscape:export-xdpi="96"
         inkscape:connector-curvature="0"
         id="path4059-3-6-61-0"
         d="m 188.43622,175.81315 a 64.858981,64.858983 0 0 0 -12.90227,1.1201 64.858981,64.858983 0 0 0 -51.70842,75.75956 64.858981,64.858983 0 0 0 75.76203,51.70844 64.858981,64.858983 0 0 0 5.24535,-1.25421 c 14.95852,-1.8601 27.00485,-4.79715 33.02684,1.88752 6.43934,5.56323 2.97657,20.33563 2.42647,36.6057 a 47.147408,47.147409 0 0 0 -0.14156,18.04828 47.147408,47.147409 0 0 0 55.07122,37.58672 47.147408,47.147409 0 0 0 37.58671,-55.07123 47.147408,47.147409 0 0 0 -14.68053,-26.14728 47.147408,47.147409 0 0 0 -1.20951,-1.08532 c -0.92941,-0.80163 -1.8846,-1.54391 -2.8611,-2.23772 a 47.147408,47.147409 0 0 0 -27.78644,-8.90121 c -17.25294,-1.54297 -33.72465,1.05041 -38.88316,-6.30088 -7.17955,-7.91285 -0.0139,-22.92232 3.1641,-41.63 a 64.858981,64.858983 0 0 0 0.75005,-27.25994 64.858981,64.858983 0 0 0 -62.85978,-52.82853 z"
         style="opacity:1;fill:#ec407a;fill-opacity:1;stroke:none;stroke-width:1.54870296" />
      <circle
         inkscape:export-ydpi="96"
         inkscape:export-xdpi="96"
         r="33.523121"
         transform="rotate(79.31449)"
         cy="-519.31409"
         cx="492.30527"
         id="path4059-3-62-2-5"
         style="opacity:1;fill:#8bc34a;fill-opacity:1;stroke:none;stroke-width:1.1011709" />
      <path
         inkscape:export-ydpi="96"
         inkscape:export-xdpi="96"
         inkscape:connector-curvature="0"
         id="path4059-3-6-61-0-9"
         d="m 711.16823,379.94473 a 47.147408,47.147409 0 0 0 -9.37805,0.81214 47.147408,47.147409 0 0 0 -37.58671,55.07122 47.147408,47.147409 0 0 0 14.65321,26.11996 c 0.0132,0.0127 0.0266,0.0249 0.0397,0.0372 a 47.147408,47.147409 0 0 0 1.1797,1.06049 c 0.9381,0.81009 1.90481,1.55991 2.89091,2.26008 a 47.147408,47.147409 0 0 0 1.0282,0.71278 c 0.0102,0.008 0.0217,0.0129 0.0323,0.0198 a 47.147408,47.147409 0 0 0 26.71355,8.16109 c 17.25292,1.54298 33.72463,-1.04791 38.88314,6.30336 7.18275,7.91639 0.006,22.93303 -3.16907,41.65236 a 64.858981,64.858983 0 0 0 -0.74258,27.2351 64.858981,64.858983 0 0 0 75.75956,51.70843 64.858981,64.858983 0 0 0 51.70843,-75.75957 64.858981,64.858983 0 0 0 -75.76205,-51.70842 64.858981,64.858983 0 0 0 -5.25777,1.25918 c -14.95253,1.86018 -26.99415,4.79025 -33.01442,-1.89251 -6.43737,-5.5615 -2.97819,-20.32413 -2.42647,-36.5883 a 47.147408,47.147409 0 0 0 0.14157,-18.06318 47.147408,47.147409 0 0 0 -45.69317,-38.40133 z"
         style="opacity:1;fill:#8bc34a;fill-opacity:1;stroke:none;stroke-width:1.54870296" />
      <circle
         inkscape:export-ydpi="96"
         inkscape:export-xdpi="96"
         r="22.678032"
         transform="rotate(136.99312)"
         cy="-754.93579"
         cx="-103.70348"
         id="path4059-3-62-2-5-9"
         style="opacity:1;fill:#26a69a;fill-opacity:1;stroke:none;stroke-width:1.10117102" />
      <path
         inkscape:export-ydpi="96"
         inkscape:export-xdpi="96"
         inkscape:connector-curvature="0"
         id="path4059-3-6-61-0-9-7"
         d="m 609.09997,526.07693 a 31.894715,31.894716 0 0 0 -23.32841,8.53363 31.894715,31.894716 0 0 0 -9.86981,19.41922 c -0.0647,0.50008 -0.11113,0.99708 -0.14652,1.49264 a 31.894715,31.894716 0 0 0 -0.0844,1.32377 c -1.9e-4,0.009 1.9e-4,0.0182 0,0.0273 a 31.894715,31.894716 0 0 0 5.12118,18.40094 c 5.35001,10.33027 12.65858,18.75457 10.33671,24.32681 -1.92684,6.96675 -13.09796,8.29967 -24.94273,13.24999 a 43.876402,43.876403 0 0 0 -15.85278,9.4302 43.876402,43.876403 0 0 0 -2.15824,62.01287 43.876402,43.876403 0 0 0 62.01285,2.15825 43.876402,43.876403 0 0 0 2.15825,-62.01287 43.876402,43.876403 0 0 0 -2.62019,-2.55065 c -6.47163,-7.87507 -12.50608,-13.69961 -10.86323,-19.55832 0.85061,-5.68915 10.53434,-9.05306 20.0277,-14.61595 a 31.894715,31.894716 0 0 0 10.39135,-6.45735 31.894715,31.894716 0 0 0 1.56963,-45.07971 31.894715,31.894716 0 0 0 -21.75131,-10.10078 z"
         style="opacity:1;fill:#26a69a;fill-opacity:1;stroke:none;stroke-width:1.54870296" />
      <circle
         inkscape:export-ydpi="96"
         inkscape:export-xdpi="96"
         r="22.678032"
         transform="rotate(-43.006881)"
         cy="492.93692"
         cx="91.762817"
         id="path4059-3-62-2-5-9-2"
         style="opacity:1;fill:#ef5350;fill-opacity:0.99029122;stroke:none;stroke-width:1.10117102" />
      <path
         inkscape:export-ydpi="96"
         inkscape:export-xdpi="96"
         inkscape:connector-curvature="0"
         id="path4059-3-6-61-0-9-7-9"
         d="m 416.00052,81.019315 a 43.876402,43.876403 0 0 0 -32.09301,11.73747 43.876402,43.876403 0 0 0 -2.15825,62.012875 43.876402,43.876403 0 0 0 2.61523,2.5432 c 6.47383,7.87865 12.51154,13.70529 10.86821,19.56575 -0.85099,5.69163 -10.54281,9.05371 -20.04012,14.62093 a 31.894715,31.894716 0 0 0 -10.37895,6.45238 31.894715,31.894716 0 0 0 -1.56962,45.07724 31.894715,31.894716 0 0 0 45.07972,1.56962 31.894715,31.894716 0 0 0 9.8698,-19.41922 c 0.0646,-0.49893 0.11114,-0.99573 0.14653,-1.49017 a 31.894715,31.894716 0 0 0 0.0844,-1.32872 31.894715,31.894716 0 0 0 0,-0.005 c 1.5e-4,-0.008 -1.5e-4,-0.0149 0,-0.0224 a 31.894715,31.894716 0 0 0 -5.12118,-18.39847 c -5.35,-10.33025 -12.65858,-18.75455 -10.33671,-24.32679 1.92738,-6.96866 13.10429,-8.3013 24.95266,-13.25494 a 43.876402,43.876403 0 0 0 15.84286,-9.42525 43.876402,43.876403 0 0 0 2.15823,-62.012865 43.876402,43.876403 0 0 0 -29.91985,-13.89572 z"
         style="opacity:1;fill:#ef5350;fill-opacity:0.99029122;stroke:none;stroke-width:1.54870296" />
      <circle
         inkscape:export-ydpi="96"
         inkscape:export-xdpi="96"
         r="22.678032"
         transform="rotate(44.591746)"
         cy="-200.81461"
         cx="627.81689"
         id="path4059-3-62-2-5-9-2-4"
         style="opacity:1;fill:#fdd835;fill-opacity:1;stroke:none;stroke-width:1.10117102" />
      <path
         inkscape:export-ydpi="96"
         inkscape:export-xdpi="96"
         inkscape:connector-curvature="0"
         id="path4059-3-6-61-0-9-7-9-7"
         d="m 664.14137,245.90515 a 31.894715,31.894716 0 0 0 -22.95089,9.49976 31.894715,31.894716 0 0 0 0.32039,45.10703 31.894715,31.894716 0 0 0 18.23952,8.87886 31.894715,31.894716 0 0 0 1.57459,0.16638 c 0.49326,0.043 0.98256,0.0696 1.47029,0.0844 a 31.894715,31.894716 0 0 0 19.5434,-5.85384 c 10.1011,-5.77871 18.21597,-13.43945 23.88225,-11.3525 7.03988,1.63291 8.84108,12.73479 14.28066,24.35909 a 43.876402,43.876403 0 0 0 10.08836,15.45044 43.876402,43.876403 0 0 0 62.05012,-0.44207 43.876402,43.876403 0 0 0 -0.44208,-62.04765 43.876402,43.876403 0 0 0 -62.05011,0.44209 43.876402,43.876403 0 0 0 -2.43394,2.71953 c -7.59984,6.79784 -13.16504,13.07412 -19.0889,11.67787 -5.72181,-0.61172 -9.48857,-10.15431 -15.44795,-19.4093 a 31.894715,31.894716 0 0 0 -6.88204,-10.10078 31.894715,31.894716 0 0 0 -22.15367,-9.17936 z"
         style="opacity:1;fill:#fdd835;fill-opacity:1;stroke:none;stroke-width:1.54870296" />
      <circle
         inkscape:export-ydpi="96"
         inkscape:export-xdpi="96"
         r="22.678032"
         transform="rotate(-135.40825)"
         cy="-59.148167"
         cx="-628.60529"
         id="path4059-3-62-2-5-9-2-4-0"
         style="opacity:1;fill:#5c6bc0;fill-opacity:1;stroke:none;stroke-width:1.10117102" />
      <path
         inkscape:export-ydpi="96"
         inkscape:export-xdpi="96"
         inkscape:connector-curvature="0"
         id="path4059-3-6-61-0-9-7-9-7-3"
         d="m 233.12105,436.3099 a 43.876402,43.876403 0 0 0 -31.57393,13.07364 43.876402,43.876403 0 0 0 0.44208,62.04763 43.876402,43.876403 0 0 0 62.05012,-0.44207 43.876402,43.876403 0 0 0 2.43889,-2.72698 c 7.59643,-6.79555 13.16429,-13.06379 19.08642,-11.66794 5.72181,0.61172 9.48856,10.15182 15.44795,19.40681 a 31.894715,31.894716 0 0 0 6.87956,10.10078 31.894715,31.894716 0 0 0 45.10704,-0.32038 31.894715,31.894716 0 0 0 -0.32287,-45.10705 31.894715,31.894716 0 0 0 -18.23703,-8.87884 31.894715,31.894716 0 0 0 -1.5746,-0.16641 c -0.49379,-0.043 -0.98453,-0.0695 -1.47277,-0.0844 a 31.894715,31.894716 0 0 0 -19.54092,5.85383 c -10.10226,5.77887 -18.21799,13.43964 -23.88472,11.35251 -7.04436,-1.63395 -8.84044,-12.74909 -14.28812,-24.38145 A 43.876402,43.876403 0 0 0 263.59723,448.9415 43.876402,43.876403 0 0 0 233.12105,436.30993 Z"
         style="opacity:1;fill:#5c6bc0;fill-opacity:1;stroke:none;stroke-width:1.54870296" />
      <circle
         inkscape:export-ydpi="96"
         inkscape:export-xdpi="96"
         r="54.005199"
         cy="391.35791"
         cx="497.46909"
         id="path5414"
         style="opacity:1;fill:#5d7986;fill-opacity:1;stroke:none;stroke-width:0.1620156;stroke-miterlimit:4;stroke-dasharray:none;stroke-dashoffset:0;stroke-opacity:1" />
    </g>
    <text
       xml:space="preserve"
       style="font-style:normal;font-weight:normal;font-size:208.181427px;line-height:1.25;font-family:sans-serif;letter-spacing:0px;word-spacing:0px;fill:#000000;fill-opacity:1;stroke:none;stroke-width:5.20453548"
       x="137.52359"
       y="937.14288"
       id="text4509"
       inkscape:export-xdpi="96"
       inkscape:export-ydpi="96"><tspan
         sodipodi:role="line"
         id="tspan4507"
         x="137.52359"
         y="937.14288"
         style="font-style:normal;font-variant:normal;font-weight:normal;font-stretch:normal;font-size:208.181427px;font-family:Dosis;-inkscape-font-specification:Dosis;font-variant-ligatures:normal;font-variant-caps:normal;font-variant-numeric:normal;font-feature-settings:normal;text-align:start;writing-mode:lr-tb;text-anchor:start;stroke-width:5.20453548">tecmides</tspan></text>
  </g>
</svg>
